<svg xmlns="http://www.w3.org/2000/svg" xmlns:xlink="http://www.w3.org/1999/xlink" version="1.1" width="256" height="256" viewBox="0 0 256 256" xml:space="preserve">

<defs>
</defs>
<g style="stroke: none; stroke-width: 0; stroke-dasharray: none; stroke-linecap: butt; stroke-linejoin: miter; stroke-miterlimit: 10; fill: none; fill-rule: nonzero; opacity: 1;" transform="translate(1.4065934065934016 1.4065934065934016) scale(2.81 2.81)" >
	<path d="M 70.563 61.482 c -0.778 0 -1.748 -0.242 -2.803 -1.059 l -12.117 -8.854 v -13.11 l 12.128 -8.865 c 1.985 -1.575 3.688 -1.04 4.336 -0.732 c 0.812 0.386 2.174 1.412 2.174 3.949 v 24.406 c 0 2.49 -1.329 3.515 -2.122 3.903 C 71.849 61.272 71.289 61.482 70.563 61.482 z M 61.644 48.522 l 6.637 4.851 l 0.001 -16.72 l -6.638 4.852 V 48.522 z" style="stroke: none; stroke-width: 1; stroke-dasharray: none; stroke-linecap: butt; stroke-linejoin: miter; stroke-miterlimit: 10; fill: rgb(0,0,0); fill-rule: nonzero; opacity: 1;" transform=" matrix(1 0 0 1 0 0) " stroke-linecap="round" />
	<path d="M 26.164 61.478 c -5.733 0 -10.42 -4.658 -10.445 -10.407 l 0.001 -18.259 c 0.056 -2.353 1.942 -4.24 4.295 -4.295 l 26.607 -0.001 c 0.015 0 0.03 0 0.045 0 c 5.734 0 10.421 4.659 10.445 10.407 v 18.206 c -0.057 2.43 -2.015 4.35 -4.366 4.35 H 26.209 C 26.194 61.478 26.179 61.478 26.164 61.478 z M 21.718 34.515 v 16.542 c 0.011 2.442 2.004 4.419 4.478 4.42 h 24.916 l -0.001 -16.543 c -0.011 -2.435 -2.009 -4.419 -4.458 -4.419 c -0.007 0 -0.013 0 -0.02 0 H 21.718 z" style="stroke: none; stroke-width: 1; stroke-dasharray: none; stroke-linecap: butt; stroke-linejoin: miter; stroke-miterlimit: 10; fill: rgb(0,0,0); fill-rule: nonzero; opacity: 1;" transform=" matrix(1 0 0 1 0 0) " stroke-linecap="round" />
	<path d="M 45 90 C 20.187 90 0 69.813 0 45 C 0 20.187 20.187 0 45 0 c 24.813 0 45 20.187 45 45 C 90 69.813 69.813 90 45 90 z M 45 6 C 23.495 6 6 23.495 6 45 s 17.495 39 39 39 s 39 -17.495 39 -39 S 66.505 6 45 6 z" style="stroke: none; stroke-width: 1; stroke-dasharray: none; stroke-linecap: butt; stroke-linejoin: miter; stroke-miterlimit: 10; fill: rgb(0,0,0); fill-rule: nonzero; opacity: 1;" transform=" matrix(1 0 0 1 0 0) " stroke-linecap="round" />
</g>
</svg>