<!DOCTYPE svg PUBLIC "-//W3C//DTD SVG 1.1//EN" "http://www.w3.org/Graphics/SVG/1.1/DTD/svg11.dtd">
<svg width="200px" height="200px" viewBox="0 0 512 512" id="SVGRepoEditor" version="1.1" xml:space="preserve" xmlns="http://www.w3.org/2000/svg" xmlns:xlink="http://www.w3.org/1999/xlink" fill="#000000" stroke="#000000" stroke-width="0">
<g id="SVGRepo_bgCarrier" stroke-width="0"/>
<g id="SVGRepoEditor">
<path d="M507.998,211.681c0,81.321-46.76,151.722-114.882,185.802c-5.64-6.72-13.56-11.64-22.76-13.6 l-21.96-7.12c71.561-20.801,123.842-86.842,123.842-165.083c0-95.001-77.001-171.963-171.962-171.963 c-70.721,0-131.442,42.68-157.802,103.721l-5.24-38.88c-0.2-5.84-1.561-11.4-3.92-16.4 c37.84-51.041,98.521-84.161,166.962-84.161C414.957,3.998,507.998,96.919,507.998,211.681z" style="fill:#fd3d75;"/>
<path d="M507.998,211.681c0,3.04-0.08,6.08-0.2,9.08c-4.56-110.722-95.761-198.963-207.523-198.963 c-66.281,0-125.242,31.041-163.283,79.361c-0.52-4.6-1.8-9-3.68-13c37.84-51.041,98.521-84.161,166.962-84.161 C414.957,3.998,507.998,96.919,507.998,211.681z" style="fill:#fd3d75;"/>
<path d="M507.998,211.681c0,81.321-46.76,151.722-114.882,185.802c-3.399-4.04-7.64-7.44-12.48-9.92 c63.44-34.4,123.961-109.522,127.161-184.603C507.918,205.841,507.998,208.761,507.998,211.681z" style="fill:#fd3d75;"/>
<path d="M287.022,502.978C139.006,450.349,30.453,320.286,5.144,165.244 C-3.981,109.309,42.606,59.956,99.018,65.041c0.46,0.042,0.921,0.083,1.382,0.125c20.537,1.851,36.197,18.791,36.829,39.387 l8.07,59.921c4.826,20.077-5.654,40.633-24.988,47.883l-0.79,0.294c-22.875,8.622-32.943,35.287-21.623,56.946 c25.138,47.987,60.324,90.146,103.043,123.461c19.285,15.01,47.321,9.873,59.894-11.091l0.431-0.724 c10.59-17.726,32.688-24.361,51.579-16.022l57.511,18.656c20.15,4.305,34.016,22.742,32.166,43.279l-0.125,1.382 C397.312,484.949,340.424,521.959,287.022,502.978z" style="fill:#fd3d75;"/>
<path d="M27.337,191.817c11.776,71.8,41.329,138.232,84.405,194.127 C56.607,325.066,18.783,248.799,5.13,165.21C-3.977,109.302,42.57,59.982,99.044,65.073l1.356,0.122 c17.356,1.564,31.213,13.886,35.429,30.054c-4.07-1.87-8.47-3.087-13.216-3.515l-1.425-0.128 C64.783,86.521,18.229,135.908,27.337,191.817z" style="fill:#fd3d75;"/>
<path d="M402.523,427.141l-0.128,1.424c-5.085,56.406-62.002,93.377-115.38,74.418 c-79.467-28.282-147.56-78.846-197.493-143.629c47.186,52.028,107.009,92.755,175.287,117.022 c53.377,18.959,110.294-18.012,115.379-74.418l0.128-1.424c0.428-4.746,0.023-9.361-1.157-13.705 C394.374,393.942,404.087,409.785,402.523,427.141z" style="fill:#fd3d75;"/>
<path d="M512,211.683C512,94.963,417.022,0,300.274,0c-64.732,0-126.437,30.25-166.43,81.076 c-7.25-11.013-19.204-18.643-33.073-19.892l-1.395-0.125c-28.332-2.566-55.684,7.938-75.075,28.77 c-19.203,20.633-27.625,48.356-23.106,76.06C26.82,322.856,135.83,453.467,285.684,506.75c9.891,3.516,20.106,5.25,30.262,5.25 c17,0,33.84-4.863,48.7-14.383c23.969-15.352,39.18-40.399,41.735-68.72l0.125-1.383c0.942-10.448-1.901-20.448-7.418-28.65 C468.846,362.05,512,290.784,512,211.683z M398.537,426.795l-0.125,1.383c-2.328,25.84-16.211,48.692-38.083,62.704 c-21.633,13.855-47.868,16.895-71.966,8.328C141.255,446.905,34.246,318.688,9.093,164.6 c-4.121-25.243,3.559-50.509,21.067-69.321c17.692-19.008,42.665-28.594,68.521-26.25l1.359,0.125 c18.352,1.652,32.618,16.922,33.188,35.52c0.008,0.141,0.016,0.277,0.035,0.414l8.07,59.923c0.02,0.133,0.043,0.27,0.074,0.398 c4.375,18.18-5.301,36.754-22.489,43.2l-0.809,0.301c-11.938,4.496-21.387,13.906-25.93,25.817 c-4.563,11.965-3.77,25.348,2.176,36.727c25.239,48.18,61.243,91.318,104.127,124.76c10.125,7.883,23.153,11.067,35.739,8.707 c12.531-2.34,23.481-9.957,30.055-20.918l0.422-0.711c9.422-15.766,29.43-21.961,46.528-14.41 c0.125,0.055,0.254,0.102,0.383,0.145l57.513,18.656c0.133,0.043,0.266,0.078,0.398,0.105 C387.717,391.678,400.194,408.447,398.537,426.795z M314.271,361.478c-20.754-9.059-44.989-1.457-56.446,17.727l-0.418,0.703 c-5.387,8.977-14.371,15.227-24.653,17.149c-10.324,1.918-21.032-0.676-29.352-7.152 c-41.989-32.743-77.243-74.986-101.955-122.158c-4.887-9.348-5.539-20.344-1.793-30.168c3.731-9.77,11.485-17.492,21.258-21.176 l0.805-0.297c20.91-7.844,32.715-30.325,27.52-52.36l-2.651-19.686c26.791-60.984,86.992-100.339,153.688-100.339 c92.615,0,167.963,75.349,167.963,167.963c0,73.825-49.206,139.793-119.802,160.877L314.271,361.478z M393.943,392.538 c-5.956-6.097-13.67-10.589-22.543-12.529l-10.229-3.318c68.314-25.231,115.066-91.367,115.066-165.009 c0-97.025-78.939-175.964-175.964-175.964c-65.729,0-125.399,36.506-155.617,94.017l-3.436-25.516 c-0.192-5.434-1.366-10.622-3.319-15.409c38.394-50.62,98.894-80.811,162.373-80.811C412.608,7.998,504,99.37,504,211.681 C504,288.326,461.898,357.338,393.943,392.538z" style="fill:#fd3d75;"/>
<path d="M208.014,216.109c0-4.137-0.988-7.391-2.969-9.766c-1.98-2.379-5.082-3.566-9.305-3.566 c-8.711,0-13.328,5.942-13.856,17.817h-18.082c0.527-10.996,3.871-19.332,10.031-25.008c6.156-5.676,13.942-8.512,23.36-8.512 c9.59,0,16.957,2.488,22.106,7.457c5.145,4.973,7.719,11.594,7.719,19.86c0,6.516-1.914,13.047-5.738,19.602 c-3.828,6.555-8.692,12.582-14.586,18.078c-5.895,5.5-12.098,10.227-18.606,14.188h40.778v15.176h-65.591v-13.856 C193.099,246.902,208.014,229.746,208.014,216.109z" style="fill:#fd3d75;"/>
<path d="M228.867,284.434h-65.591c-1.656,0-3-1.344-3-3v-13.856c0-0.984,0.48-1.906,1.289-2.465 c28.832-19.989,43.45-36.473,43.45-49.005c0-3.399-0.766-6.035-2.273-7.844c-1.395-1.676-3.684-2.488-7-2.488 c-4.375,0-10.262,1.551-10.86,14.949c-0.07,1.606-1.391,2.867-2.996,2.867h-18.082c-0.82,0-1.605-0.336-2.172-0.93 c-0.566-0.594-0.863-1.395-0.824-2.215c0.563-11.758,4.262-20.867,10.996-27.071c6.695-6.172,15.239-9.305,25.391-9.305 c10.344,0,18.485,2.793,24.188,8.297c5.731,5.539,8.637,12.949,8.637,22.02c0,7.02-2.066,14.121-6.149,21.114 c-3.957,6.777-9.047,13.09-15.129,18.762c-3.477,3.242-7.094,6.25-10.813,8.992h30.938c1.656,0,3,1.344,3,3v15.176 C231.867,283.09,230.523,284.434,228.867,284.434z M166.276,278.434h59.591v-9.176h-37.778c-1.344,0-2.527-0.895-2.887-2.191 c-0.363-1.293,0.18-2.672,1.328-3.371c6.313-3.844,12.41-8.492,18.117-13.821c5.656-5.27,10.379-11.125,14.043-17.395 c3.535-6.063,5.328-12.149,5.328-18.09c0-7.488-2.227-13.278-6.805-17.703c-4.547-4.387-11.281-6.613-20.02-6.613 c-8.719,0-15.692,2.523-21.325,7.719c-4.945,4.555-7.91,11.207-8.828,19.801h12.063c1.57-14.637,9.793-17.817,16.637-17.817 c5.137,0,9.043,1.563,11.61,4.648c2.43,2.914,3.664,6.844,3.664,11.684c0,14.614-14.637,31.969-44.739,53.036L166.276,278.434 L166.276,278.434z" style="fill:#fd3d75;"/>
<path d="M242.391,263.489v-15.442l44.606-60.052h19.93v59.391h12.141v16.102h-12.141v18.739h-18.742 v-18.739L242.391,263.489L242.391,263.489z M289.637,209.773l-28.243,37.614h28.243V209.773z" style="fill:#fd3d75;"/>
<path d="M306.927,285.227h-18.742c-1.656,0-3-1.344-3-3v-15.739h-42.794c-1.656,0-3-1.344-3-3v-15.442 c0-0.645,0.207-1.273,0.59-1.789l44.606-60.052c0.566-0.762,1.461-1.211,2.41-1.211h19.93c1.656,0,3,1.344,3,3v56.391h9.141 c1.656,0,3,1.344,3,3v16.102c0,1.656-1.344,3-3,3h-9.141v15.739C309.927,283.883,308.583,285.227,306.927,285.227z M291.184,279.227h12.742v-15.739c0-1.656,1.344-3,3-3h9.141v-10.102h-9.141c-1.656,0-3-1.344-3-3v-56.391h-15.422 l-43.114,58.044v11.449h42.794c1.656,0,3,1.344,3,3V279.227z M289.637,250.386h-28.243c-1.137,0-2.176-0.641-2.684-1.66 c-0.508-1.016-0.398-2.23,0.285-3.141l28.243-37.614c0.777-1.031,2.129-1.445,3.348-1.047c1.227,0.41,2.051,1.559,2.051,2.848 v37.614C292.637,249.043,291.294,250.386,289.637,250.386z M267.399,244.386h19.239v-25.621L267.399,244.386z" style="fill:#fd3d75;"/>
<path d="M377.664,157.249l-35.766,148.865h-17.949l35.766-148.865H377.664z" style="fill:#fd3d75;"/>
<path d="M341.896,309.114h-17.949c-0.918,0-1.789-0.422-2.356-1.145c-0.57-0.719-0.777-1.664-0.563-2.555 l35.766-148.865c0.324-1.352,1.531-2.301,2.918-2.301h17.949c0.918,0,1.789,0.422,2.355,1.145 c0.57,0.719,0.777,1.664,0.563,2.555l-35.766,148.865C344.49,308.164,343.283,309.114,341.896,309.114z M327.751,303.114h11.781 l34.325-142.865h-11.781L327.751,303.114z" style="fill:#fd3d75;"/>
<path d="M448.657,202.117l-34.051,80.111h-19.27l34.446-77.997h-43.153v-15.969h62.028L448.657,202.117 L448.657,202.117z" style="fill:#fd3d75;"/>
<path d="M414.604,285.227h-19.27c-1.016,0-1.961-0.512-2.512-1.363c-0.555-0.848-0.641-1.922-0.234-2.848 l32.586-73.786h-38.547c-1.656,0-3-1.344-3-3v-15.969c0-1.656,1.344-3,3-3h62.028c1.656,0,3,1.344,3,3v13.856 c0,0.402-0.082,0.801-0.238,1.172L417.366,283.4C416.893,284.508,415.807,285.227,414.604,285.227z M399.94,279.227h12.68 l33.036-77.72v-10.246h-56.028v9.969h40.153c1.016,0,1.961,0.512,2.512,1.363c0.555,0.848,0.641,1.922,0.234,2.848 L399.94,279.227z M448.655,202.116h0.039H448.655z" style="fill:#fd3d75;"/>
</g>
</svg>