<!DOCTYPE svg PUBLIC "-//W3C//DTD SVG 1.1//EN" "http://www.w3.org/Graphics/SVG/1.1/DTD/svg11.dtd">
<svg fill="#fd3d75" version="1.1" id="SVGRepoEditor" xmlns="http://www.w3.org/2000/svg" xmlns:xlink="http://www.w3.org/1999/xlink" width="200px" height="200px" viewBox="0 0 464.331 464.331" xml:space="preserve" stroke="#fd3d75" stroke-width="0">
<g id="SVGRepo_bgCarrier" stroke-width="0"/> <g id="SVGRepoEditor"> <path d="M464.331,177.387v214.884c0,7.74-6.271,14.011-14.006,14.011H14.008C6.271,406.282,0,400.012,0,392.271V177.387 c0-7.74,6.271-14.009,14.008-14.009h31.984l-3.568,27.292c-0.725,5.515,1.188,11.157,5.138,15.135 c3.413,3.414,7.957,5.297,12.78,5.297l11.577-1.502c-2.991,15.021-16.239,26.34-32.14,26.34c-4.148,0-8.107-0.812-11.768-2.213 v100.049c3.653-1.406,7.614-2.21,11.768-2.21c18.105,0,32.785,14.676,32.785,32.777c0,4.984-1.144,9.69-3.138,13.915h324.623 c-1.98-4.23-3.139-8.937-3.139-13.915c0-18.097,14.674-32.777,32.786-32.777c4.465,0,8.723,0.897,12.607,2.517V233.426 c-3.885,1.62-8.143,2.52-12.607,2.52c-18.102,0-32.786-14.673-32.786-32.777c0-4.153,0.808-8.115,2.222-11.773h-197.24 c3.957-2.818,6.721-7.174,7.394-12.143c0.866-6.014-1.368-11.918-5.656-15.875h125.219c-4.903-8.686-10.922-16.804-18.135-24.021 c-41.839-41.834-108.882-43.224-152.543-4.416l-16.877,16.878l50.2,21.768c1.688,0.728,2.678,2.495,2.415,4.31 c-0.246,1.816-1.688,3.239-3.507,3.474L59.374,197.715c-1.256,0.162-2.511-0.251-3.412-1.16c-0.892-0.897-1.319-2.158-1.155-3.406 L71.153,68.123c0.117-0.925,0.535-1.732,1.154-2.353c0.61-0.619,1.417-1.032,2.313-1.16c1.816-0.26,3.586,0.733,4.319,2.418 l21.765,50.195l12.26-12.186l-0.18-0.186c4.366-4.37,8.956-8.405,13.671-12.159c3.116-2.521,6.67-5.246,9.618-7.076 c62.279-42.312,147.994-35.929,203.146,19.234c16.789,16.783,29.298,36.804,37.188,58.528h73.918 C458.044,163.378,464.331,169.647,464.331,177.387z M164.688,333.524h26.953c-13.174-11.469-21.541-28.322-21.541-47.163 c0-20.61,10.008-38.839,25.391-50.241h-30.802v-30.818h134.949v30.818h-29.78c15.377,11.402,25.379,29.63,25.379,50.241 c0,18.841-8.35,35.689-21.526,47.163h25.928v30.819H164.688V333.524z M222.235,288.15c-11.046,4.953-18.751,16.013-18.751,28.904 h63.363c0-13.647-8.635-25.236-20.717-29.691c6.358-4.131,10.574-11.294,10.574-19.441c0-12.788-10.378-23.169-23.167-23.169 c-12.794,0-23.171,10.381-23.171,23.169C210.354,276.635,215.151,284.189,222.235,288.15z"/> </g>
</svg>